<?xml version="1.0" encoding="UTF-8"?>
<svg id="Layer_1" data-name="Layer 1" xmlns="http://www.w3.org/2000/svg" viewBox="0 0 205.39 250">
  <defs>
    <style>
      .cls-1 {
        fill: #38a4dd;
      }
    </style>
  </defs>
  <path class="cls-1" d="m194.91,1.55v.13L64.34,28.28c-1.02.21-1.75,1.09-1.75,2.15v164.56c-9.55-4.75-24.13-3.88-37.87,3.26-19.09,9.93-29.27,28.16-22.74,40.72,6.53,12.56,27.3,14.7,46.39,4.77,15.93-8.28,26.39-22.39,26.32-34.08V64.15c0-.92.64-1.71,1.54-1.89l116.37-23.63c1.19-.24,2.31.69,2.31,1.89v121.4c-9.54-4.75-24.13-3.89-37.87,3.26-19.09,9.93-29.27,28.16-22.74,40.72,6.53,12.56,27.3,14.7,46.39,4.77,15.93-8.28,25.62-22.34,24.6-34.08h.09V2.19c0-1.38-1.25-2.39-2.6-2.15l-7.87,1.52h0Z"/>
</svg>